<svg width="20" height="21" viewBox="0 0 20 21" fill="none" xmlns="http://www.w3.org/2000/svg">
<path d="M7.89093 12.9681C7.89093 12.409 8.84093 11.959 10.0046 11.9681C11.1682 11.9772 12.1137 12.4227 12.1091 12.9908C12.1046 13.559 11.2 13.9954 10.0273 13.9863C8.85457 13.9772 7.88639 13.5318 7.89093 12.9681Z" fill="#25465F"/>
<path d="M18.3182 16.7363H1.68184C1.46022 16.7363 1.24077 16.6925 1.03613 16.6074C0.83149 16.5223 0.645683 16.3976 0.489392 16.2405C0.333101 16.0834 0.209409 15.8969 0.125427 15.6918C0.0414439 15.4867 -0.00117341 15.267 2.45723e-05 15.0454V4.09085C0.00122798 3.64559 0.17895 3.21898 0.494222 2.90456C0.809494 2.59014 1.23658 2.41357 1.68184 2.41357H18.3182C18.7635 2.41357 19.1906 2.59014 19.5058 2.90456C19.8211 3.21898 19.9988 3.64559 20 4.09085V15.0454C20.0012 15.267 19.9586 15.4867 19.8746 15.6918C19.7906 15.8969 19.6669 16.0834 19.5107 16.2405C19.3544 16.3976 19.1686 16.5223 18.9639 16.6074C18.7593 16.6925 18.5398 16.7363 18.3182 16.7363ZM1.68184 3.77721C1.64027 3.77661 1.599 3.78428 1.56042 3.79977C1.52184 3.81526 1.48673 3.83827 1.45712 3.86745C1.42752 3.89663 1.40401 3.93141 1.38796 3.96976C1.37192 4.00812 1.36366 4.04927 1.36366 4.09085V15.0454C1.36366 15.087 1.37192 15.1281 1.38796 15.1665C1.40401 15.2048 1.42752 15.2396 1.45712 15.2688C1.48673 15.298 1.52184 15.321 1.56042 15.3365C1.599 15.352 1.64027 15.3596 1.68184 15.359H18.3182C18.3598 15.3596 18.401 15.352 18.4396 15.3365C18.4782 15.321 18.5133 15.298 18.5429 15.2688C18.5725 15.2396 18.596 15.2048 18.6121 15.1665C18.6281 15.1281 18.6364 15.087 18.6364 15.0454V4.09085C18.6364 4.04927 18.6281 4.00812 18.6121 3.96976C18.596 3.93141 18.5725 3.89663 18.5429 3.86745C18.5133 3.83827 18.4782 3.81526 18.4396 3.79977C18.401 3.78428 18.3598 3.77661 18.3182 3.77721H1.68184Z" fill="#25465F"/>
<path d="M15.0364 18.5863H4.96366C4.78283 18.5863 4.60941 18.5145 4.48154 18.3866C4.35368 18.2587 4.28184 18.0853 4.28184 17.9045C4.28184 17.7237 4.35368 17.5502 4.48154 17.4224C4.60941 17.2945 4.78283 17.2227 4.96366 17.2227H15.0364C15.2172 17.2227 15.3906 17.2945 15.5185 17.4224C15.6464 17.5502 15.7182 17.7237 15.7182 17.9045C15.7182 18.0853 15.6464 18.2587 15.5185 18.3866C15.3906 18.5145 15.2172 18.5863 15.0364 18.5863Z" fill="#25465F"/>
</svg>
