<svg width="20" height="20" viewBox="0 0 20 20" fill="none" xmlns="http://www.w3.org/2000/svg">
<path d="M18.3182 2.65899H1.68188C1.25003 2.65548 0.833377 2.81824 0.518245 3.11354H0.490972C0.475728 3.13446 0.463488 3.15741 0.454609 3.18172C0.159189 3.49494 -0.00368134 3.91026 6.31638e-05 4.34081V15.659C-0.000292144 15.8815 0.0437469 16.1018 0.129602 16.3071C0.215457 16.5124 0.341402 16.6985 0.500063 16.8544C0.510508 16.8751 0.522672 16.8949 0.536427 16.9135C0.615382 17.0001 0.715705 17.0644 0.827336 17.0999C1.08492 17.2566 1.3804 17.3399 1.68188 17.3408H18.3182C18.5755 17.3387 18.8288 17.2781 19.0592 17.1635C19.2059 17.1346 19.3396 17.0598 19.441 16.9499C19.4603 16.9211 19.477 16.8907 19.491 16.859C19.6522 16.7035 19.7805 16.5171 19.8679 16.3109C19.9554 16.1047 20.0004 15.883 20.0001 15.659V4.34081C20.0001 3.89476 19.8229 3.46699 19.5075 3.15158C19.1921 2.83618 18.7643 2.65899 18.3182 2.65899ZM1.3637 5.05899L6.5637 10.5135L1.3637 15.2454V5.05899ZM10.041 12.2181L8.11825 10.1908C8.09552 10.159 8.08643 10.1272 8.0637 10.0999C8.03144 10.0623 7.99482 10.0288 7.95461 9.9999L2.27279 4.02263H17.7819L10.041 12.2181ZM7.50461 11.5226L9.54552 13.6772C9.60836 13.7445 9.68436 13.7982 9.76881 13.8349C9.85325 13.8717 9.94433 13.8907 10.0364 13.8908C10.1285 13.8907 10.2196 13.8717 10.304 13.8349C10.3885 13.7982 10.4645 13.7445 10.5273 13.6772L12.4773 11.6135L17.3319 15.9772H2.58643L7.50461 11.5226ZM13.4137 10.6135L18.6364 5.0999V15.309L13.4137 10.6135Z" fill="#25465F"/>
<path d="M10.0001 7.4499C8.83643 7.4499 7.88643 7.90445 7.88643 8.4499C7.88643 8.99535 8.85461 9.46354 10.0228 9.47263C11.191 9.48172 12.1046 9.01808 12.1046 8.47717C12.1046 7.93626 11.1728 7.45899 10.0001 7.4499Z" fill="#25465F"/>
</svg>
