<svg width="21" height="21" viewBox="0 0 21 21" fill="none" xmlns="http://www.w3.org/2000/svg">
<path d="M9.86822 17.7727C10.0565 17.8944 10.2759 17.9592 10.5 17.9592C10.7242 17.9592 10.9436 17.8944 11.1319 17.7727C13.6182 16.1636 16.1319 12.1409 16.1319 6.78177C16.1522 5.94368 16.0051 5.10995 15.6992 4.32943C15.3932 3.54891 14.9345 2.83731 14.35 2.23632C13.3482 1.24643 11.9948 0.693973 10.5864 0.699957H10.5C9.78719 0.686278 9.07883 0.815587 8.41679 1.08025C7.75476 1.34491 7.15247 1.73955 6.6455 2.24087C6.061 2.84185 5.60234 3.55346 5.29637 4.33397C4.99041 5.11449 4.8433 5.94822 4.86368 6.78632C4.87277 12.1545 7.38186 16.1772 9.86822 17.7727ZM7.60913 3.22723C8.36716 2.48444 9.38878 2.07252 10.45 2.08177H10.5C11.0346 2.06477 11.567 2.15765 12.0643 2.35468C12.5615 2.55171 13.0131 2.84868 13.3909 3.22723C13.8446 3.70477 14.1988 4.26777 14.4329 4.88346C14.6671 5.49915 14.7764 6.15526 14.7546 6.81359C14.7546 11.5818 12.6319 15.1318 10.4909 16.5863C8.35004 15.1318 6.22731 11.5863 6.22731 6.81359C6.20792 6.15399 6.32013 5.49714 6.55738 4.88138C6.79463 4.26562 7.15217 3.70329 7.60913 3.22723Z" fill="#25465F"/>
<path d="M10.5 18.2772C9.3364 18.2772 8.3864 18.7318 8.3864 19.2772C8.3864 19.8227 9.35459 20.2954 10.5228 20.3C11.6909 20.3045 12.6046 19.8454 12.6046 19.3045C12.6046 18.7636 11.6728 18.2863 10.5 18.2772Z" fill="#25465F"/>
<path d="M10.5273 5.73177C11.6955 5.73177 12.6046 5.27723 12.6091 4.73632C12.6137 4.19541 11.6728 3.71814 10.5 3.70905C9.32731 3.69996 8.3864 4.16359 8.38186 4.70905C8.37731 5.2545 9.35913 5.72268 10.5273 5.73177Z" fill="#25465F"/>
<path d="M11.4091 6.71359C10.7455 7.67268 10.5955 8.67723 11.0546 8.98632C11.5137 9.29541 12.4182 8.78632 13.091 7.82268C13.7637 6.85905 13.9182 5.83178 13.4591 5.51359C13 5.19541 12.0864 5.7545 11.4091 6.71359Z" fill="#25465F"/>
<path d="M9.5364 6.64996C8.87731 5.68632 7.9864 5.19541 7.52731 5.51359C7.06822 5.83177 7.23186 6.87723 7.89549 7.82723C8.55913 8.77723 9.46822 9.3045 9.92731 8.98632C10.3864 8.66814 10.2 7.60905 9.5364 6.64996Z" fill="#25465F"/>
</svg>
