<svg width="20" height="20" viewBox="0 0 20 20" fill="none" xmlns="http://www.w3.org/2000/svg">
<path d="M17.0435 12.887C16.4178 11.9063 15.5107 11.1373 14.4408 10.6806C13.8176 10.3946 13.1162 10.3268 12.4497 10.4881C11.7832 10.6493 11.1905 11.0303 10.7669 11.5696C10.3416 11.1891 9.96722 10.7553 9.653 10.2789C9.33604 9.80814 9.08048 9.29883 8.89252 8.76332C9.1835 8.68177 9.45996 8.55529 9.71191 8.38844C10.1433 8.08993 10.4939 7.68904 10.7322 7.2217C10.9706 6.75436 11.0892 6.23518 11.0776 5.71071C11.0532 4.54777 10.68 3.41897 10.0065 2.47065C9.38055 1.48884 8.47363 0.718147 7.4037 0.258844C6.92204 0.0510777 6.39628 -0.0337151 5.87372 0.0120909C5.35116 0.0578969 4.84817 0.232865 4.41 0.521262L3.47815 1.13178C2.11251 2.04757 1.56089 3.90056 1.93042 6.34801C2.39051 8.91793 3.40677 11.3562 4.90806 13.4922C7.63399 17.5249 11.1793 19.9991 13.8731 19.9991C14.5759 20.0152 15.267 19.8173 15.8546 19.4314L16.7811 18.8102C17.2112 18.5107 17.5605 18.1095 17.7978 17.6423C18.0352 17.1751 18.1532 16.6564 18.1414 16.1324C18.1109 14.9647 17.7282 13.8334 17.0435 12.887ZM15.8546 17.4927L14.9281 18.1193C13.3215 19.1904 9.33703 17.2196 6.2255 12.6085C4.85564 10.6695 3.92702 8.45401 3.50493 6.11772C3.24786 4.33971 3.56384 3.01155 4.37787 2.45994L5.30436 1.83871C5.53965 1.67909 5.81802 1.59502 6.10233 1.59771C6.34841 1.60117 6.59173 1.6502 6.81996 1.74231C7.5816 2.08267 8.22476 2.64194 8.66759 3.34895C9.16121 4.02421 9.44103 4.83195 9.47091 5.66786C9.48291 5.93302 9.42902 6.19701 9.31407 6.43625C9.19912 6.67549 9.02669 6.88253 8.81219 7.03886C8.55164 7.21702 8.23777 7.30022 7.92318 7.2745C7.80423 7.26896 7.68551 7.28959 7.57539 7.33494C7.46528 7.38028 7.36645 7.44923 7.28588 7.53692C7.20387 7.62386 7.14289 7.72845 7.10761 7.84264C7.07233 7.95683 7.0637 8.07759 7.08238 8.19564C7.26947 9.26911 7.69195 10.2878 8.31949 11.1786C8.91234 12.0948 9.70059 12.8684 10.6277 13.444C10.7302 13.5047 10.845 13.5415 10.9637 13.5517C11.0824 13.5619 11.2018 13.5452 11.3132 13.5029C11.425 13.4627 11.5262 13.3974 11.6088 13.312C11.6915 13.2266 11.7534 13.1233 11.7898 13.0102C11.8828 12.712 12.0709 12.4524 12.3254 12.2711C12.552 12.1327 12.8089 12.0515 13.0739 12.0347C13.3389 12.0179 13.6041 12.066 13.8463 12.1748C14.6087 12.514 15.2521 13.0735 15.694 13.7814C16.1848 14.4577 16.4626 15.2651 16.4919 16.1003C16.51 16.3671 16.4611 16.6342 16.3498 16.8773C16.2386 17.1205 16.0683 17.332 15.8546 17.4927Z" fill="#25465F"/>
<path d="M8.49086 6.50867C9.02641 6.12843 8.81755 4.86454 8.02494 3.72383C7.23233 2.58312 6.18266 1.99401 5.63104 2.37425C5.07943 2.75449 5.28294 3.98089 6.07019 5.12696C6.85745 6.27303 7.94461 6.88355 8.49086 6.50867Z" fill="#25465F"/>
<path d="M12.6735 12.8067C12.1379 13.1869 12.3254 14.4133 13.1126 15.5594C13.8999 16.7055 14.9817 17.3214 15.5333 16.9572C16.0849 16.593 15.8546 15.3184 15.0674 14.1723C14.2801 13.0263 13.2197 12.4265 12.6735 12.8067Z" fill="#25465F"/>
</svg>
