<svg width="20" height="21" viewBox="0 0 20 21" fill="none" xmlns="http://www.w3.org/2000/svg">
<path d="M19.2318 17.7C17.8681 14.0636 16.0818 11.3636 13.9772 9.84089C14.6599 9.07428 15.1064 8.1266 15.2628 7.11206C15.4192 6.09752 15.2789 5.05938 14.8588 4.12275C14.4388 3.18611 13.7568 2.39093 12.8951 1.83302C12.0334 1.27511 11.0288 0.978271 10.0022 0.978271C8.97571 0.978271 7.97107 1.27511 7.10939 1.83302C6.2477 2.39093 5.56572 3.18611 5.14563 4.12275C4.72554 5.05938 4.58525 6.09752 4.74167 7.11206C4.89809 8.1266 5.34454 9.07428 6.02724 9.84089C3.95451 11.3682 2.14542 14.0591 0.768147 17.6954C0.73183 17.7885 0.716268 17.8884 0.722549 17.9881C0.72883 18.0878 0.756802 18.1849 0.804511 18.2727C0.949965 18.5545 2.4636 21 10.0091 21C17.5545 21 19.0545 18.5318 19.2 18.2727C19.2466 18.1853 19.2735 18.0888 19.279 17.9899C19.2845 17.8909 19.2684 17.792 19.2318 17.7ZM9.99996 2.36361C10.7832 2.36361 11.5488 2.59593 12.2 3.03116C12.8512 3.46639 13.3586 4.08498 13.6581 4.80868C13.9576 5.53237 14.0358 6.32865 13.8826 7.09676C13.7295 7.86487 13.352 8.5703 12.7979 9.12381C12.2437 9.67732 11.5378 10.054 10.7696 10.2063C10.0013 10.3585 9.20508 10.2795 8.48173 9.97912C7.75838 9.67877 7.14037 9.17062 6.70589 8.51895C6.27141 7.86728 6.03998 7.10139 6.04087 6.31816C6.04208 5.26893 6.45973 4.26309 7.20207 3.5216C7.94441 2.78011 8.95074 2.36361 9.99996 2.36361ZM9.99996 19.6363C4.60906 19.6363 2.72724 18.3227 2.18633 17.8182C3.49542 14.5 5.21815 12.0273 7.08633 10.7682C7.95259 11.3388 8.96717 11.643 10.0045 11.643C11.0419 11.643 12.0564 11.3388 12.9227 10.7682C14.8181 12.0273 16.5591 14.5 17.8181 17.8136C17.2727 18.3273 15.3954 19.6363 9.99996 19.6363Z" fill="#25465F"/>
<path d="M9.99996 14.1363C8.83633 14.1363 7.88633 14.5909 7.88633 15.1363C7.88633 15.6818 8.85451 16.1545 10.0227 16.1591C11.1909 16.1636 12.1045 15.7045 12.1045 15.1636C12.1045 14.6227 11.1727 14.1454 9.99996 14.1363Z" fill="#25465F"/>
</svg>
