<svg width="20" height="20" viewBox="0 0 20 20" fill="none" xmlns="http://www.w3.org/2000/svg">
<g id="Icons/Interface/Question-circle">
<g id="Vector">
<path d="M8.75 14.3318C8.08637 15.2864 7.93637 16.2909 8.39546 16.6045C8.85455 16.9182 9.75909 16.4045 10.4318 15.4455C11.1045 14.4864 11.2591 13.4545 10.8 13.1364C10.3409 12.8182 9.41364 13.3682 8.75 14.3318Z" fill="#25465F"/>
<path d="M13.1136 4.16818C12.2519 3.54196 11.1998 3.23357 10.1364 3.29545C9.05795 3.23855 7.99172 3.54593 7.10909 4.16818C6.72889 4.47014 6.41661 4.84885 6.19261 5.27961C5.96861 5.71037 5.83793 6.18352 5.80909 6.66818L7.59091 6.90909C7.59475 6.61757 7.66128 6.33029 7.78599 6.06677C7.91069 5.80324 8.09065 5.56963 8.31364 5.38182C8.8411 5.00235 9.48318 4.81615 10.1318 4.85455C10.7183 4.8201 11.2998 4.97985 11.7864 5.30909C11.9773 5.45785 12.1298 5.65024 12.231 5.87011C12.3323 6.08998 12.3793 6.33092 12.3682 6.57273C12.3696 6.90486 12.2537 7.22683 12.0409 7.48182C11.6381 7.89167 11.1695 8.23121 10.6545 8.48636C10.067 8.79369 9.55956 9.23422 9.17273 9.77273C8.89583 10.2396 8.75713 10.7756 8.77273 11.3182V11.9091H10.4864V11.3318C10.483 11.1121 10.5296 10.8945 10.6227 10.6955C10.727 10.4919 10.8707 10.3112 11.0455 10.1636C11.1136 10.1091 11.2455 10.0182 11.4364 9.89091C11.6273 9.76364 11.8909 9.60909 12.2 9.43636C12.8027 9.12118 13.3287 8.67737 13.7409 8.13636C14.0481 7.67869 14.2068 7.13747 14.1955 6.58636C14.2183 6.12658 14.1323 5.66789 13.9443 5.24767C13.7563 4.82745 13.4717 4.45757 13.1136 4.16818Z" fill="#25465F"/>
<path d="M10 0C8.02219 0 6.08879 0.58649 4.4443 1.6853C2.79981 2.78412 1.51809 4.3459 0.761209 6.17317C0.00433288 8.00043 -0.193701 10.0111 0.192152 11.9509C0.578004 13.8907 1.53041 15.6725 2.92894 17.0711C4.32746 18.4696 6.10929 19.422 8.0491 19.8079C9.98891 20.1937 11.9996 19.9957 13.8268 19.2388C15.6541 18.4819 17.2159 17.2002 18.3147 15.5557C19.4135 13.9112 20 11.9778 20 10C20 7.34784 18.9464 4.8043 17.0711 2.92893C15.1957 1.05357 12.6522 0 10 0ZM10 18.6364C8.29189 18.6364 6.62214 18.1299 5.2019 17.1809C3.78165 16.2319 2.67471 14.8831 2.02104 13.305C1.36738 11.7269 1.19635 9.99042 1.52959 8.31513C1.86282 6.63984 2.68536 5.10099 3.89317 3.89317C5.10099 2.68535 6.63984 1.86282 8.31513 1.52958C9.99042 1.19635 11.7269 1.36737 13.305 2.02104C14.8831 2.67471 16.2319 3.78165 17.1809 5.20189C18.1299 6.62214 18.6364 8.29189 18.6364 10C18.6364 12.2905 17.7265 14.4872 16.1068 16.1068C14.4872 17.7265 12.2905 18.6364 10 18.6364Z" fill="#25465F"/>
</g>
</g>
</svg>
