<svg width="30" height="30" viewBox="0 0 30 30" fill="none" xmlns="http://www.w3.org/2000/svg">
<path d="M13.125 21.4977C12.1296 22.9295 11.9046 24.4364 12.5932 24.9068C13.2818 25.3773 14.6386 24.6068 15.6477 23.1682C16.6568 21.7295 16.8886 20.1818 16.2 19.7045C15.5114 19.2273 14.1205 20.0523 13.125 21.4977Z" fill="white"/>
<path d="M19.6705 6.25227C18.3778 5.31294 16.7997 4.85035 15.2046 4.94318C13.5869 4.85782 11.9876 5.3189 10.6636 6.25227C10.0933 6.70521 9.62491 7.27327 9.28892 7.91941C8.95292 8.56556 8.7569 9.27528 8.71364 10.0023L11.3864 10.3636C11.3921 9.92636 11.4919 9.49544 11.679 9.10015C11.866 8.70486 12.136 8.35445 12.4705 8.07273C13.2617 7.50353 14.2248 7.22422 15.1977 7.28182C16.0775 7.23015 16.9497 7.46978 17.6796 7.96364C17.966 8.18678 18.1947 8.47535 18.3466 8.80516C18.4984 9.13497 18.569 9.49639 18.5523 9.85909C18.5545 10.3573 18.3806 10.8402 18.0614 11.2227C17.4571 11.8375 16.7542 12.3468 15.9818 12.7295C15.1005 13.1905 14.3393 13.8513 13.7591 14.6591C13.3438 15.3595 13.1357 16.1633 13.1591 16.9773V17.8636H15.7296V16.9977C15.7245 16.6682 15.7945 16.3418 15.9341 16.0432C16.0906 15.7379 16.3061 15.4668 16.5682 15.2455C16.6705 15.1636 16.8682 15.0273 17.1546 14.8364C17.4409 14.6455 17.8364 14.4136 18.3 14.1545C19.204 13.6818 19.9931 13.0161 20.6114 12.2045C21.0722 11.518 21.3103 10.7062 21.2932 9.87955C21.3275 9.18986 21.1984 8.50183 20.9164 7.8715C20.6344 7.24117 20.2075 6.68636 19.6705 6.25227Z" fill="white"/>
<path d="M15 0C12.0333 0 9.13319 0.879735 6.66645 2.52796C4.19972 4.17618 2.27713 6.51886 1.14181 9.25975C0.00649932 12.0006 -0.290551 15.0166 0.288228 17.9264C0.867006 20.8361 2.29562 23.5088 4.39341 25.6066C6.49119 27.7044 9.16394 29.133 12.0737 29.7118C14.9834 30.2906 17.9994 29.9935 20.7403 28.8582C23.4812 27.7229 25.8238 25.8003 27.4721 23.3336C29.1203 20.8668 30 17.9667 30 15C30 11.0218 28.4197 7.20644 25.6066 4.3934C22.7936 1.58035 18.9783 0 15 0ZM15 27.9545C12.4378 27.9545 9.93321 27.1948 7.80285 25.7713C5.67248 24.3478 4.01207 22.3246 3.03157 19.9575C2.05107 17.5904 1.79453 14.9856 2.29438 12.4727C2.79423 9.95976 4.02803 7.65148 5.83976 5.83975C7.65149 4.02803 9.95976 2.79423 12.4727 2.29437C14.9856 1.79452 17.5904 2.05106 19.9575 3.03156C22.3246 4.01206 24.3479 5.67248 25.7713 7.80284C27.1948 9.9332 27.9546 12.4378 27.9546 15C27.9546 18.4358 26.5897 21.7308 24.1603 24.1602C21.7308 26.5897 18.4358 27.9545 15 27.9545Z" fill="white"/>
</svg>
